<?xml version="1.0" encoding="UTF-8" standalone="no"?>
<svg
   xmlns:dc="http://purl.org/dc/elements/1.1/"
   xmlns:cc="http://creativecommons.org/ns#"
   xmlns:rdf="http://www.w3.org/1999/02/22-rdf-syntax-ns#"
   xmlns:svg="http://www.w3.org/2000/svg"
   xmlns="http://www.w3.org/2000/svg"
   viewBox="0 0 770.58667 358.49332"
   height="358.49332"
   width="770.58667"
   xml:space="preserve"
   id="svg2"
   version="1.1"><metadata
     id="metadata8"><rdf:RDF><cc:Work
         rdf:about=""><dc:format>image/svg+xml</dc:format><dc:type
           rdf:resource="http://purl.org/dc/dcmitype/StillImage" /></cc:Work></rdf:RDF></metadata><defs
     id="defs6" /><g
     transform="matrix(1.3333333,0,0,-1.3333333,0,358.49333)"
     id="g10"><g
       transform="scale(0.1)"
       id="g12"><path
         id="path14"
         style="fill:#dbb779;fill-opacity:1;fill-rule:nonzero;stroke:none"
         d="m 2337.51,348.512 c -142.44,0 -235.13,-23.203 -344.79,137.066 -109.66,160.262 -181.35,475.043 -236.19,521.432 -54.82,46.39 0,-56.881 33.75,-234.022 33.73,-177.148 68.53,-277.929 -41.13,-261.047 -90.69,13.957 -580.91,164.297 -882.369,477.981 C 340.98,1613.2 639.316,2229.35 1181.3,2515.68 c 213.19,112.63 294.48,138.46 303.14,160.66 22.4,57.46 -459.86,-90.48 -703.831,-348.95 C 520.992,2052.35 521.066,1773.68 438.52,1795.16 324.227,1824.89 199.777,2139.31 431.477,2485.5 550.07,2662.68 301.516,2595.19 228.523,2153.77 164.996,1769.63 584.27,1398.88 512.328,1256.36 453.41,1139.65 159.441,1340.45 83.1133,1559.81 48.9141,1658.09 9.06641,1628.93 2.80469,1593.11 -4.10938,1553.55 0.429688,1502.97 31.4961,1441.5 162,1183.23 438.41,1186.96 869.398,823.551 905.781,789.148 943.719,755.25 983.371,722.02 c 0.289,-0.27 0.567,-0.508 0.859,-0.79 l 0.071,0.008 c 39.259,-32.859 80.089,-65.09 122.709,-96.476 55.44,-40.821 56.72,-81.102 -29.52,-84.723 -90.084,-3.769 -362.717,91.57 -388.017,66.27 C 664.156,581 803.344,493.66 997.355,459.91 c 194.015,-33.738 267.825,8.801 499.795,-24.949 208.68,-30.352 437.61,-56.27 641.08,-215.09 144.04,-112.441 132.86,-198.2421 166.6,-215.10147 34.78,-17.39063 62.96,11.46097 100.92,108.46847 37.96,97.012 35.66,235.274 -68.24,235.274" /><path
         id="path16"
         style="fill:#dbb779;fill-opacity:1;fill-rule:nonzero;stroke:none"
         d="m 3441.89,348.512 c 142.45,0 235.13,-23.203 344.79,137.066 109.67,160.262 181.36,475.043 236.19,521.432 54.83,46.39 0,-56.881 -33.74,-234.022 -33.74,-177.148 -68.53,-277.929 41.13,-261.047 90.69,13.957 580.91,164.297 882.37,477.981 525.79,623.278 227.46,1239.428 -314.52,1525.758 -213.19,112.63 -294.49,138.46 -303.15,160.66 -22.4,57.46 459.87,-90.48 703.84,-348.95 259.61,-275.04 259.53,-553.71 342.08,-532.23 114.3,29.73 238.74,344.15 7.04,690.34 -118.58,177.18 129.96,109.69 202.96,-331.73 63.53,-384.14 -355.75,-754.89 -283.8,-897.41 58.91,-116.71 352.88,84.09 429.21,303.45 34.2,98.28 74.05,69.12 80.3,33.3 6.93,-39.56 2.39,-90.14 -28.68,-151.61 -130.5,-258.27 -406.92,-254.54 -837.9,-617.949 -36.38,-34.403 -74.32,-68.301 -113.97,-101.531 -0.29,-0.27 -0.58,-0.508 -0.86,-0.79 l -0.07,0.008 c -39.27,-32.859 -80.1,-65.09 -122.72,-96.476 -55.44,-40.821 -56.72,-81.102 29.52,-84.723 90.09,-3.769 362.72,91.57 388.02,66.27 C 5115.25,581 4976.06,493.66 4782.05,459.91 4588.04,426.172 4514.23,468.711 4282.26,434.961 4073.57,404.609 3844.64,378.691 3641.17,219.871 3497.13,107.43 3508.32,21.6289 3474.58,4.76953 3439.8,-12.6211 3411.61,16.2305 3373.66,113.238 3335.7,210.25 3338,348.512 3441.89,348.512" /><path
         id="path18"
         style="fill:#231f20;fill-opacity:1;fill-rule:nonzero;stroke:none"
         d="m 2349.15,2233.61 -46.27,-317.11 h -87.62 l -60.36,466.32 h 73.23 l 36.15,-353.26 49.94,353.26 h 70.47 l 49.94,-352.95 35.85,352.95 h 73.53 l -60.36,-466.32 h -87.63 l -46.87,317.11" /><path
         id="path20"
         style="fill:#231f20;fill-opacity:1;fill-rule:nonzero;stroke:none"
         d="m 2756.88,1980.54 c 34.31,0.92 38.91,30.02 38.91,61.27 v 215.7 c 0,30.64 -3.37,60.97 -39.83,60.97 -0.61,0 -1.23,0 -1.53,0.31 -34.31,-0.93 -38.6,-30.03 -38.6,-61.28 v -215.7 c 0,-30.63 3.37,-60.97 39.83,-60.97 0.3,0 0.92,-0.3 1.22,-0.3 z m -1.22,408.1 c 0,0.31 0,0.31 0.3,0.31 91.61,0 112.45,-60.66 112.45,-131.13 v -216.31 c 0,-71.39 -21.45,-131.13 -112.45,-131.13 l -0.3,0.3 v -0.3 c -91.61,0 -112.75,60.66 -112.75,131.13 v 216.31 c 0,70.77 21.75,131.13 112.75,131.13 v -0.31" /><path
         id="path22"
         style="fill:#231f20;fill-opacity:1;fill-rule:nonzero;stroke:none"
         d="m 3095.06,1980.54 c 34.32,0.92 38.92,30.02 38.92,61.27 v 215.7 c 0,30.64 -3.37,60.97 -39.84,60.97 -0.61,0 -1.22,0 -1.53,0.31 -34.31,-0.93 -38.6,-30.03 -38.6,-61.28 v -215.7 c 0,-30.63 3.37,-60.97 39.83,-60.97 0.3,0 0.92,-0.3 1.22,-0.3 z m -1.22,408.1 c 0,0.31 0,0.31 0.3,0.31 91.62,0 112.45,-60.66 112.45,-131.13 v -216.31 c 0,-71.39 -21.45,-131.13 -112.45,-131.13 l -0.3,0.3 v -0.3 c -91.61,0 -112.75,60.66 -112.75,131.13 v 216.31 c 0,70.77 21.75,131.13 112.75,131.13 v -0.31" /><path
         id="path24"
         style="fill:#231f20;fill-opacity:1;fill-rule:nonzero;stroke:none"
         d="m 3442.14,1986.67 c 29.11,0.92 38.3,23.28 38.3,60.05 v 205.58 c 0,35.85 -8.88,58.83 -38.3,59.74 h -39.22 v -325.37 z m -0.92,395.84 c 89.47,-0.92 111.53,-58.21 111.53,-130.21 v -205.89 c 0,-71.7 -22.06,-129.91 -112.44,-129.91 h -109.99 v 466.01 h 110.9" /><path
         id="path26"
         style="fill:#231f20;fill-opacity:1;fill-rule:nonzero;stroke:none"
         d="m 1559.52,1267.43 v 466.01 h 72.61 v -466.01 h -72.61" /><path
         id="path28"
         style="fill:#231f20;fill-opacity:1;fill-rule:nonzero;stroke:none"
         d="m 1766.88,1267.43 v 466.01 h 86.7 l 88.55,-314.04 v 314.04 h 68.63 l 0.92,-466.01 h -80.89 l -95.28,320.79 v -320.79 h -68.63" /><path
         id="path30"
         style="fill:#231f20;fill-opacity:1;fill-rule:nonzero;stroke:none"
         d="m 2262.54,1662.97 v -395.54 h -72.92 v 395.54 h -76.29 v 70.47 h 225.5 v -70.47 h -76.29" /><path
         id="path32"
         style="fill:#231f20;fill-opacity:1;fill-rule:nonzero;stroke:none"
         d="m 2440.19,1267.43 v 466.01 h 197.01 v -70.47 h -124.4 v -123.16 h 103.25 v -70.47 H 2512.8 v -131.75 h 124.4 v -70.16 h -197.01" /><path
         id="path34"
         style="fill:#231f20;fill-opacity:1;fill-rule:nonzero;stroke:none"
         d="m 2909.81,1614.56 c 0,39.22 -14.09,48.41 -40.75,48.41 h -39.21 v -144.92 h 38.6 c 27.88,0 41.36,19.92 41.36,45.35 z m -152.58,-347.13 v 466.01 h 112.14 c 76.9,0 113.05,-34.01 113.05,-119.79 v -50.25 c 0,-39.53 -19.3,-70.47 -47.18,-91 24.51,-17.16 33.7,-34.93 37.68,-83.95 l 5.22,-64.34 c 2.14,-25.43 10.41,-42.28 17.46,-56.68 h -75.37 c -3.37,6.44 -12.56,30.02 -15.01,54.54 l -5.52,64.95 c -3.98,46.57 -25.12,61.58 -45.04,60.67 h -24.81 v -180.16 h -72.62" /><path
         id="path36"
         style="fill:#231f20;fill-opacity:1;fill-rule:nonzero;stroke:none"
         d="m 3107.67,1267.43 v 466.01 h 72.62 v -466.01 h -72.62" /><path
         id="path38"
         style="fill:#231f20;fill-opacity:1;fill-rule:nonzero;stroke:none"
         d="m 3417.97,1331.47 c 34.32,0.92 38.92,30.02 38.92,61.27 v 215.7 c 0,30.64 -3.37,60.97 -39.84,60.97 -0.61,0 -1.22,0 -1.53,0.3 -34.32,-0.92 -38.6,-30.02 -38.6,-61.27 v -215.7 c 0,-30.64 3.37,-60.97 39.83,-60.97 0.3,0 0.92,-0.3 1.22,-0.3 z m -1.22,408.1 c 0,0.31 0,0.31 0.3,0.31 91.62,0 112.45,-60.67 112.45,-131.14 v -216.31 c 0,-71.38 -21.45,-131.13 -112.45,-131.13 l -0.3,0.31 v -0.31 c -91.61,0 -112.75,60.67 -112.75,131.13 v 216.31 c 0,70.77 21.76,131.14 112.75,131.14 v -0.31" /><path
         id="path40"
         style="fill:#231f20;fill-opacity:1;fill-rule:nonzero;stroke:none"
         d="m 3806.1,1614.56 c 0,39.22 -14.09,48.41 -40.75,48.41 h -39.21 v -144.92 h 38.6 c 27.88,0 41.36,19.92 41.36,45.35 z m -152.58,-347.13 v 466.01 h 112.14 c 76.9,0 113.05,-34.01 113.05,-119.79 v -50.25 c 0,-39.53 -19.3,-70.47 -47.18,-91 24.51,-17.16 33.7,-34.93 37.68,-83.95 l 5.22,-64.34 c 2.14,-25.43 10.41,-42.28 17.46,-56.68 h -75.37 c -3.37,6.44 -12.56,30.02 -15.01,54.54 l -5.52,64.95 c -3.98,46.57 -25.13,61.58 -45.04,60.67 h -24.81 v -180.16 h -72.62" /><path
         id="path42"
         style="fill:#231f20;fill-opacity:1;fill-rule:nonzero;stroke:none"
         d="m 4215.37,1380.49 c 0,-76.9 -33.39,-119.19 -112.75,-119.19 -88.54,0 -113.36,44.43 -113.36,121.95 v 31.86 h 72.31 v -31.25 c 0,-34.62 7.35,-52.09 40.13,-52.09 31.56,0 40.75,20.53 40.75,49.02 v 3.68 c 0,35.54 -6.12,54.54 -34,72.61 l -44.12,28.49 c -60.98,39.84 -71.08,69.25 -71.08,130.53 v 8.27 c 0,79.97 39.21,115.51 111.52,115.51 75.07,0 109.37,-38.61 109.37,-116.74 v -36.77 h -72.6 l -0.31,40.76 c 0,25.43 -10.42,42.58 -37.38,42.58 -28.18,0 -38.92,-19.91 -37.99,-48.1 l 0.31,-8.89 c 0.3,-24.2 11.64,-47.18 34,-60.35 l 39.53,-23.29 c 58.21,-35.23 74.14,-74.76 75.67,-133.28 v -15.31" /><path
         id="path44"
         style="fill:#231f20;fill-opacity:1;fill-rule:nonzero;stroke:none"
         d="m 2357.32,713.789 v 212.313 l 85.62,0.128 V 900.539 L 2384,900.391 v -65.219 h 49.3 V 809.469 H 2384 v -70.117 h 58.94 v -25.563 h -85.62" /><path
         id="path46"
         style="fill:#231f20;fill-opacity:1;fill-rule:nonzero;stroke:none"
         d="m 2588.54,765.602 c 0,-34.641 -14.52,-54.34 -49.31,-54.34 -40.64,0 -49.58,21.527 -49.58,55.457 v 12.152 h 26.53 v -11.59 c 0,-20.531 3.91,-30.441 22.77,-30.441 17.46,0 22.91,12.148 22.91,28.762 v 1.527 c 0,18.031 -4.75,27.812 -18.72,36.473 l -20.26,12.57 c -25.41,16.058 -31.55,29.609 -31.55,57.68 v 3.347 c 0,34.789 16.9,51.692 48.74,51.692 33.52,0 47.91,-18.993 47.91,-52.371 v -15.239 h -26.55 l -0.13,17.879 c -0.42,13.68 -6.15,24.168 -21.51,24.168 -16.34,0 -22.2,-12.289 -21.79,-27.937 l 0.28,-4.461 c 0.42,-12.852 6.99,-24.032 18.72,-30.879 l 18.85,-10.903 c 24.17,-14.097 31.99,-32.41 32.69,-58.097 v -5.449" /><path
         id="path48"
         style="fill:#231f20;fill-opacity:1;fill-rule:nonzero;stroke:none"
         d="M 2691.4,900.391 V 713.789 h -26.81 v 186.602 h -36.45 v 25.711 h 99.71 v -25.711 h -36.45" /><path
         id="path50"
         style="fill:#231f20;fill-opacity:1;fill-rule:nonzero;stroke:none"
         d="m 2771.2,741.719 c 11.88,0 16.48,-4.879 16.48,-15.5 0,-10.059 -4.6,-14.957 -16.48,-14.957 -11.03,0 -15.92,4.898 -15.92,14.957 0,10.621 4.89,15.5 15.92,15.5" /><path
         id="path52"
         style="fill:#231f20;fill-opacity:1;fill-rule:nonzero;stroke:none"
         d="m 2923.91,713.789 v 23.051 c 6.71,49.988 68.45,96.219 68.45,140.64 0,16.911 -6.43,25.848 -20.96,25.848 -17.45,0 -20.24,-13.84 -20.24,-28.078 v -14.109 h -26.68 v 16.339 c 0,30.59 12.56,51.668 47.35,51.668 30.86,0 47.06,-15.757 47.06,-51.097 0,-54.051 -53.5,-89.539 -64.11,-138.699 h 63.42 v -25.563 h -94.29" /><path
         id="path54"
         style="fill:#231f20;fill-opacity:1;fill-rule:nonzero;stroke:none"
         d="m 3138.1,771.891 v 96.359 c 0,18.441 0,35.078 -20.67,35.078 -19.69,0 -20.4,-15.637 -20.4,-35.187 V 771.75 c 0,-18.441 -0.27,-34.91 20.4,-34.91 19.97,0 20.67,15.5 20.67,35.051 z m -67.75,96.359 c 0,31.852 5.18,60.641 47.08,60.641 42.32,0 47.2,-29.352 47.2,-60.493 V 771.75 c 0,-31.84 -5.44,-60.488 -47.2,-60.488 -42.19,0 -47.08,29.488 -47.08,60.34 v 96.648" /><path
         id="path56"
         style="fill:#231f20;fill-opacity:1;fill-rule:nonzero;stroke:none"
         d="m 3237.89,713.789 v 177.52 c -6.57,-8.797 -20.95,-14.379 -32.26,-16.899 v 25.281 c 17.6,4.469 28.21,15.5 36.44,26.821 h 21.94 V 713.789 h -26.12" /><path
         id="path58"
         style="fill:#231f20;fill-opacity:1;fill-rule:nonzero;stroke:none"
         d="m 3363.64,713.789 h -28.08 l 49.44,186.75 h -44.41 v -25.848 h -24.86 v 51.539 h 97.77 v -20.531 l -49.86,-191.91" /></g></g></svg>